<svg width="211" height="50" viewBox="0 0 211 50" fill="none" xmlns="http://www.w3.org/2000/svg">
<rect y="1" width="48" height="48" rx="8" fill="#00DEA3"/>
<path fill-rule="evenodd" clip-rule="evenodd" d="M33.5323 18.953C35.9812 20.4679 38.0609 22.5208 39.6058 24.9465C38.0236 27.4307 35.8805 29.524 33.3543 31.0487C32.4242 32.3038 31.2182 33.3731 29.8164 34.1836C34.3882 32.7042 38.2543 29.6628 40.7823 25.693C41.0726 25.2375 41.0726 24.6555 40.7823 24.1999C38.3483 20.3778 34.6739 17.4162 30.3236 15.8809C31.5981 16.7034 32.6899 17.7479 33.5323 18.953ZM16.3607 15.9952C12.1484 17.5606 8.59264 20.4706 6.21761 24.1999C5.92746 24.6555 5.92746 25.2375 6.21761 25.693C8.68555 29.5682 12.4284 32.5588 16.8581 34.0752C15.4769 33.2441 14.2942 32.1586 13.3893 30.8912C10.9744 29.3811 8.9226 27.3462 7.39433 24.9465C8.88637 22.6037 10.8774 20.6085 13.2182 19.11C14.0368 17.8943 15.1064 16.8358 16.3607 15.9952Z" fill="#00140E"/>
<path fill-rule="evenodd" clip-rule="evenodd" d="M31.2839 21.7698C30.4044 19.5527 28.6026 17.716 26.1733 16.8701C21.7713 15.3372 16.9634 17.6333 15.3802 22.0031L13.9038 22.0248C13.9422 21.8986 13.9833 21.7726 14.0271 21.6469C15.8251 16.4835 21.4684 13.7553 26.6318 15.5533C29.6371 16.5998 31.8175 18.949 32.7605 21.7481L31.2839 21.7698Z" fill="#00140E"/>
<path d="M15.9048 23.0405C15.6262 23.8405 14.7519 24.2632 13.9519 23.9846C13.152 23.706 12.7293 22.8317 13.0078 22.0317C13.2864 21.2318 14.1607 20.8091 14.9607 21.0877C15.7606 21.3662 16.1833 22.2406 15.9048 23.0405Z" fill="#00140E"/>
<path fill-rule="evenodd" clip-rule="evenodd" d="M15.3121 27.6886C16.1915 29.9057 17.9934 31.7424 20.4227 32.5883C24.8246 34.1211 29.6326 31.825 31.2157 27.4552L32.6922 27.4336C32.6537 27.5598 32.6126 27.6858 32.5689 27.8115C30.7709 32.9749 25.1276 35.7031 19.9642 33.9051C16.9588 32.8586 14.7785 30.5094 13.8354 27.7103L15.3121 27.6886Z" fill="#00140E"/>
<path d="M30.6912 26.4185C30.9698 25.6185 31.8441 25.1958 32.644 25.4744C33.444 25.7529 33.8667 26.6273 33.5881 27.4272C33.3095 28.2272 32.4352 28.6499 31.6353 28.3713C30.8353 28.0927 30.4126 27.2184 30.6912 26.4185Z" fill="#00140E"/>
<path fill-rule="evenodd" clip-rule="evenodd" d="M23.5001 31.6151C27.1355 31.6151 30.0826 28.5962 30.0826 24.872C30.0826 21.1479 27.1355 18.1289 23.5001 18.1289C19.8646 18.1289 16.9175 21.1479 16.9175 24.872C16.9175 28.5962 19.8646 31.6151 23.5001 31.6151ZM25.6446 23.0541C25.6446 23.865 25.2118 24.5724 24.57 24.9472L25.1019 28.1172C25.1595 28.4605 24.9014 28.7743 24.5613 28.7743H22.4044C22.0643 28.7743 21.8061 28.4605 21.8638 28.1172L22.4023 24.9073C21.7968 24.5236 21.3933 23.8371 21.3933 23.0541C21.3933 21.8515 22.345 20.8766 23.5189 20.8766C24.6929 20.8766 25.6446 21.8515 25.6446 23.0541Z" fill="#00140E"/>
<path d="M70.048 13.984H78.976C80.7467 13.984 82.08 14.272 82.976 14.848C83.872 15.4027 84.4693 16.2027 84.768 17.248C85.088 18.2933 85.248 19.6907 85.248 21.44C85.248 23.104 85.0987 24.4587 84.8 25.504C84.5227 26.5493 83.9253 27.3813 83.008 28C82.0907 28.6187 80.736 28.928 78.944 28.928H75.008V36H70.048V13.984ZM77.248 24.8C78.1867 24.8 78.8587 24.7253 79.264 24.576C79.6693 24.4053 79.936 24.1067 80.064 23.68C80.192 23.232 80.256 22.4853 80.256 21.44C80.256 20.3947 80.192 19.6587 80.064 19.232C79.936 18.784 79.6693 18.4853 79.264 18.336C78.8587 18.1867 78.1867 18.112 77.248 18.112H75.008V24.8H77.248ZM98.9243 36L96.3643 28.288H93.1643V36H88.2043V13.984H97.2603C99.0736 13.984 100.439 14.2613 101.356 14.816C102.274 15.3493 102.882 16.1173 103.18 17.12C103.5 18.1227 103.66 19.456 103.66 21.12C103.66 22.6773 103.49 24.0107 103.148 25.12C102.807 26.208 102.114 27.008 101.068 27.52L104.14 36H98.9243ZM95.6603 24.192C96.5989 24.192 97.2603 24.1173 97.6443 23.968C98.0496 23.8187 98.3163 23.552 98.4443 23.168C98.5723 22.7627 98.6363 22.0907 98.6363 21.152C98.6363 20.192 98.5723 19.52 98.4443 19.136C98.3376 18.7307 98.0816 18.464 97.6763 18.336C97.2923 18.1867 96.6309 18.112 95.6923 18.112H93.1643V24.192H95.6603ZM107.11 36V13.984H112.102V36H107.11ZM119.886 36L114.414 13.984H119.502L123.278 30.72H123.534L127.214 13.984H132.238L126.766 36H119.886ZM145.389 36L144.269 31.584H137.773L136.717 36H131.725L137.613 13.984H144.589L150.445 36H145.389ZM141.101 18.464H140.909L138.765 27.488H143.277L141.101 18.464ZM155.069 36V18.272H149.885V13.984H165.277V18.272H160.061V36H155.069ZM167.736 36V13.984H180.984V18.112H172.696V22.816H179.8V26.944H172.696V31.872H180.984V36H167.736Z" fill="#00140E"/>
<path d="M196.389 36L195.269 31.584H188.773L187.717 36H182.725L188.613 13.984H195.589L201.445 36H196.389ZM192.101 18.464H191.909L189.765 27.488H194.277L192.101 18.464ZM203.735 36V13.984H208.727V36H203.735Z" fill="#00DEA3"/>
</svg>
