<svg width="210" height="66" viewBox="0 0 210 66" fill="none" xmlns="http://www.w3.org/2000/svg">
<rect y="9" width="48" height="48" rx="8" fill="#00DEA3"/>
<path fill-rule="evenodd" clip-rule="evenodd" d="M33.5323 26.9549C35.9812 28.4698 38.0609 30.5228 39.6058 32.9484C38.0236 35.4326 35.8805 37.5259 33.3543 39.0507C32.4242 40.3057 31.2182 41.3751 29.8164 42.1856C34.3882 40.7062 38.2543 37.6647 40.7823 33.695C41.0726 33.2394 41.0726 32.6574 40.7823 32.2019C38.3483 28.3798 34.6739 25.4182 30.3236 23.8828C31.5981 24.7054 32.6899 25.7498 33.5323 26.9549ZM16.3607 23.9972C12.1484 25.5625 8.59264 28.4726 6.21761 32.2019C5.92746 32.6574 5.92746 33.2394 6.21761 33.695C8.68555 37.5702 12.4284 40.5608 16.8581 42.0772C15.4769 41.2461 14.2942 40.1605 13.3893 38.8932C10.9744 37.3831 8.9226 35.3481 7.39433 32.9484C8.88637 30.6056 10.8774 28.6104 13.2182 27.112C14.0368 25.8962 15.1064 24.8377 16.3607 23.9972Z" fill="#00140E"/>
<path fill-rule="evenodd" clip-rule="evenodd" d="M31.2844 29.7698C30.4049 27.5527 28.603 25.716 26.1738 24.8701C21.7718 23.3372 16.9639 25.6333 15.3807 30.0031L13.9043 30.0248C13.9427 29.8986 13.9838 29.7726 14.0276 29.6469C15.8256 24.4835 21.4689 21.7553 26.6323 23.5533C29.6376 24.5998 31.818 26.949 32.761 29.7481L31.2844 29.7698Z" fill="#00140E"/>
<path d="M15.9045 31.0386C15.6259 31.8385 14.7517 32.2612 13.9517 31.9826C13.1517 31.7041 12.729 30.8297 13.0076 30.0298C13.2861 29.2298 14.1605 28.8072 14.9604 29.0857C15.7604 29.3643 16.1831 30.2386 15.9045 31.0386Z" fill="#00140E"/>
<path fill-rule="evenodd" clip-rule="evenodd" d="M15.3126 35.6886C16.192 37.9057 17.9939 39.7424 20.4232 40.5883C24.8251 42.1211 29.633 39.825 31.2162 35.4552L32.6927 35.4336C32.6542 35.5598 32.6131 35.6858 32.5694 35.8115C30.7713 40.9749 25.1281 43.7031 19.9647 41.9051C16.9593 40.8586 14.779 38.5094 13.8359 35.7103L15.3126 35.6886Z" fill="#00140E"/>
<path d="M30.6912 34.4165C30.9698 33.6165 31.8441 33.1939 32.644 33.4724C33.444 33.751 33.8667 34.6253 33.5881 35.4253C33.3095 36.2252 32.4352 36.6479 31.6353 36.3693C30.8353 36.0908 30.4126 35.2165 30.6912 34.4165Z" fill="#00140E"/>
<path fill-rule="evenodd" clip-rule="evenodd" d="M23.5005 39.6151C27.136 39.6151 30.0831 36.5962 30.0831 32.872C30.0831 29.1479 27.136 26.1289 23.5005 26.1289C19.8651 26.1289 16.918 29.1479 16.918 32.872C16.918 36.5962 19.8651 39.6151 23.5005 39.6151ZM25.645 31.0541C25.645 31.865 25.2123 32.5724 24.5705 32.9472L25.1024 36.1172C25.16 36.4605 24.9019 36.7743 24.5617 36.7743H22.4049C22.0648 36.7743 21.8066 36.4605 21.8642 36.1172L22.4028 32.9073C21.7973 32.5236 21.3938 31.8371 21.3938 31.0541C21.3938 29.8515 22.3455 28.8766 23.5194 28.8766C24.6934 28.8766 25.645 29.8515 25.645 31.0541Z" fill="#00140E"/>
<path d="M70.048 20.984H78.976C80.7467 20.984 82.08 21.272 82.976 21.848C83.872 22.4027 84.4693 23.2027 84.768 24.248C85.088 25.2933 85.248 26.6907 85.248 28.44C85.248 30.104 85.0987 31.4587 84.8 32.504C84.5227 33.5493 83.9253 34.3813 83.008 35C82.0907 35.6187 80.736 35.928 78.944 35.928H75.008V43H70.048V20.984ZM77.248 31.8C78.1867 31.8 78.8587 31.7253 79.264 31.576C79.6693 31.4053 79.936 31.1067 80.064 30.68C80.192 30.232 80.256 29.4853 80.256 28.44C80.256 27.3947 80.192 26.6587 80.064 26.232C79.936 25.784 79.6693 25.4853 79.264 25.336C78.8587 25.1867 78.1867 25.112 77.248 25.112H75.008V31.8H77.248ZM98.9243 43L96.3643 35.288H93.1643V43H88.2043V20.984H97.2603C99.0736 20.984 100.439 21.2613 101.356 21.816C102.274 22.3493 102.882 23.1173 103.18 24.12C103.5 25.1227 103.66 26.456 103.66 28.12C103.66 29.6773 103.49 31.0107 103.148 32.12C102.807 33.208 102.114 34.008 101.068 34.52L104.14 43H98.9243ZM95.6603 31.192C96.5989 31.192 97.2603 31.1173 97.6443 30.968C98.0496 30.8187 98.3163 30.552 98.4443 30.168C98.5723 29.7627 98.6363 29.0907 98.6363 28.152C98.6363 27.192 98.5723 26.52 98.4443 26.136C98.3376 25.7307 98.0816 25.464 97.6763 25.336C97.2923 25.1867 96.6309 25.112 95.6923 25.112H93.1643V31.192H95.6603ZM107.11 43V20.984H112.102V43H107.11ZM119.886 43L114.414 20.984H119.502L123.278 37.72H123.534L127.214 20.984H132.238L126.766 43H119.886ZM145.389 43L144.269 38.584H137.773L136.717 43H131.725L137.613 20.984H144.589L150.445 43H145.389ZM141.101 25.464H140.909L138.765 34.488H143.277L141.101 25.464ZM155.069 43V25.272H149.885V20.984H165.277V25.272H160.061V43H155.069ZM167.736 43V20.984H180.984V25.112H172.696V29.816H179.8V33.944H172.696V38.872H180.984V43H167.736Z" fill="#00140E"/>
<path d="M196.389 43L195.269 38.584H188.773L187.717 43H182.725L188.613 20.984H195.589L201.445 43H196.389ZM192.101 25.464H191.909L189.765 34.488H194.277L192.101 25.464ZM203.735 43V20.984H208.727V43H203.735Z" fill="#00DEA3"/>
</svg>
