<svg xmlns="http://www.w3.org/2000/svg" width="12" height="16" viewBox="0 0 12 16" fill="none">
<path d="M2.33594 15.9375C1.14844 15.9375 0.53125 15.3047 0.53125 14.0234V8.49219C0.53125 7.35938 1.02344 6.73438 1.96094 6.60938V4.75C1.96094 1.86719 3.86719 0.375 6 0.375C8.13281 0.375 10.0391 1.86719 10.0391 4.75V6.60938C10.9766 6.73438 11.4609 7.35938 11.4609 8.49219V14.0234C11.4609 15.3047 10.8438 15.9375 9.65625 15.9375H2.33594ZM3.42188 4.60938V6.58594H8.57812V4.60938C8.57812 2.78125 7.39062 1.78125 6 1.78125C4.60156 1.78125 3.42188 2.78125 3.42188 4.60938ZM2.5625 14.5391H9.4375C9.76562 14.5391 9.94531 14.3438 9.94531 13.9688V8.54688C9.94531 8.17188 9.76562 7.98438 9.4375 7.98438H2.5625C2.24219 7.98438 2.04688 8.17188 2.04688 8.54688V13.9688C2.04688 14.3438 2.24219 14.5391 2.5625 14.5391Z" fill="#3AB393"/>
</svg>