<svg width="32" height="32" viewBox="0 0 32 32" fill="none" xmlns="http://www.w3.org/2000/svg">
<path fill-rule="evenodd" clip-rule="evenodd" d="M21.9393 9.94056C22.2192 9.6631 22.5971 9.50695 22.9912 9.50587C23.3853 9.50478 23.764 9.65884 24.0454 9.93475C24.3269 10.2107 24.4884 10.5862 24.4951 10.9803C24.5018 11.3744 24.3532 11.7552 24.0813 12.0406L16.0973 22.0206C15.9601 22.1684 15.7945 22.287 15.6104 22.3693C15.4263 22.4516 15.2275 22.496 15.0258 22.4997C14.8242 22.5034 14.6239 22.4665 14.4369 22.391C14.2498 22.3156 14.0799 22.2032 13.9373 22.0606L8.64734 16.7686C8.49997 16.6312 8.38176 16.4656 8.29978 16.2816C8.21779 16.0976 8.17371 15.899 8.17016 15.6976C8.1666 15.4962 8.20365 15.2961 8.27909 15.1094C8.35454 14.9226 8.46682 14.7529 8.60926 14.6105C8.7517 14.468 8.92137 14.3558 9.10814 14.2803C9.29492 14.2049 9.49498 14.1678 9.69638 14.1714C9.89779 14.1749 10.0964 14.219 10.2804 14.301C10.4644 14.383 10.63 14.5012 10.7673 14.6486L14.9553 18.8346L21.9013 9.98456C21.9137 9.96907 21.9271 9.95437 21.9413 9.94056H21.9393Z" fill="#20CD7E"/>
</svg>
