<svg width="16" height="16" viewBox="0 0 16 16" fill="none" xmlns="http://www.w3.org/2000/svg">
<path d="M3.33333 14.6663C2.96667 14.6663 2.65267 14.5357 2.39133 14.2743C2.13 14.013 1.99956 13.6992 2 13.333V4.66634C2 4.47745 2.064 4.31901 2.192 4.19101C2.32 4.06301 2.47822 3.99923 2.66667 3.99968C2.85556 3.99968 3.014 4.06368 3.142 4.19168C3.27 4.31968 3.33378 4.4779 3.33333 4.66634V13.333H10C10.1889 13.333 10.3473 13.397 10.4753 13.525C10.6033 13.653 10.6671 13.8112 10.6667 13.9997C10.6667 14.1886 10.6027 14.347 10.4747 14.475C10.3467 14.603 10.1884 14.6668 10 14.6663H3.33333ZM6 11.9997C5.63333 11.9997 5.31933 11.869 5.058 11.6077C4.79667 11.3463 4.66622 11.0326 4.66667 10.6663V2.66634C4.66667 2.29968 4.79733 1.98568 5.05867 1.72434C5.32 1.46301 5.63378 1.33256 6 1.33301H12C12.3667 1.33301 12.6807 1.46368 12.942 1.72501C13.2033 1.98634 13.3338 2.30012 13.3333 2.66634V10.6663C13.3333 11.033 13.2027 11.347 12.9413 11.6083C12.68 11.8697 12.3662 12.0001 12 11.9997H6ZM6 10.6663H12V2.66634H6V10.6663Z" fill="white"/>
</svg>
