<svg width="17" height="17" viewBox="0 0 17 17" fill="none" xmlns="http://www.w3.org/2000/svg">
<path d="M13.8064 3.841C14.2936 4.48406 14.5316 5.28175 14.4763 6.08665C14.4211 6.89155 14.0764 7.64925 13.5058 8.21971L12.325 9.4C12.2396 9.48527 12.1238 9.53317 12.0032 9.53317C11.8825 9.53317 11.7668 9.48527 11.6814 9.4L7.6026 5.32182C7.51732 5.23644 7.46943 5.12071 7.46943 5.00004C7.46943 4.87937 7.51732 4.76363 7.6026 4.67825L8.78349 3.49736C9.35396 2.92684 10.1117 2.58211 10.9166 2.52687C11.7214 2.47162 12.5191 2.7096 13.1622 3.19682L15.0103 1.34868C15.0962 1.26569 15.2112 1.21974 15.3306 1.22072C15.45 1.2217 15.5642 1.26953 15.6487 1.35392C15.7331 1.43831 15.7811 1.5525 15.7822 1.67189C15.7833 1.79128 15.7374 1.90633 15.6545 1.99225L13.8064 3.841ZM12.0032 8.43464L12.8617 7.57553C13.3171 7.12008 13.573 6.50235 13.573 5.85823C13.573 5.21412 13.3171 4.59639 12.8617 4.14093C12.4062 3.68547 11.7885 3.4296 11.1444 3.4296C10.5003 3.4296 9.88252 3.68547 9.42706 4.14093L8.56856 5.00004L12.0032 8.43464ZM7.75742 6.80871C7.84269 6.89409 7.89059 7.00983 7.89059 7.1305C7.89059 7.25117 7.84269 7.36691 7.75742 7.45228L6.46663 8.74368L8.25588 10.5329L9.54606 9.24214C9.63198 9.15923 9.74703 9.11339 9.86642 9.11448C9.98581 9.11558 10.1 9.16352 10.1844 9.24799C10.2688 9.33246 10.3166 9.44669 10.3176 9.56608C10.3186 9.68548 10.2726 9.80048 10.1896 9.88632L8.89945 11.1771L9.40156 11.6786C9.44388 11.7209 9.47744 11.7711 9.50035 11.8264C9.52325 11.8816 9.53504 11.9409 9.53504 12.0007C9.53504 12.0605 9.52325 12.1198 9.50035 12.175C9.47744 12.2303 9.44388 12.2805 9.40156 12.3228L8.22128 13.5037C7.65073 14.0741 6.893 14.4187 6.0881 14.4739C5.2832 14.529 4.48555 14.2909 3.84256 13.8036L1.99381 15.6524C1.90749 15.7328 1.79332 15.7766 1.67535 15.7745C1.55738 15.7724 1.44483 15.7246 1.3614 15.6412C1.27797 15.5578 1.23018 15.4452 1.2281 15.3272C1.22602 15.2093 1.26981 15.0951 1.35024 15.0088L3.19838 13.1594C2.71116 12.5164 2.47318 11.7187 2.52843 10.9138C2.58367 10.1089 2.92841 9.35118 3.49892 8.78071L4.6792 7.60043C4.76458 7.51515 4.88032 7.46726 5.00099 7.46726C5.12166 7.46726 5.2374 7.51515 5.32278 7.60043L5.82245 8.0995L7.11385 6.80871C7.19923 6.72344 7.31496 6.67554 7.43563 6.67554C7.5563 6.67554 7.67204 6.72344 7.75742 6.80871ZM4.14674 12.8637C4.60258 13.3174 5.21972 13.5717 5.8628 13.5709C6.50588 13.5701 7.12239 13.3142 7.5771 12.8595L8.4356 12.001L5.00099 8.56639L4.14249 9.42489C3.68783 9.87968 3.43212 10.4962 3.43143 11.1393C3.43075 11.7824 3.68516 12.3995 4.13885 12.8552L4.14249 12.8595L4.14674 12.8637Z" fill="#BF6746"/>
</svg>
