<svg width="1024" height="1024" viewBox="0 0 1024 1024" fill="none" xmlns="http://www.w3.org/2000/svg">
<g clip-path="url(#clip0_4058_2819)">
<path d="M768 0H416C380.656 0 352 28.656 352 64H704V320H960V832H736V896H960C995.344 896 1024 867.344 1024 832V256.016L768 0ZM768 256V90.496L933.472 256H768ZM64 128C28.656 128 0 156.656 0 192V960C0 995.344 28.656 1024 64 1024H608C643.344 1024 672 995.344 672 960V384.016L416 128H64ZM608 960H64V192H352V448H608V960ZM416 384V218.496L581.472 384H416Z" fill="#00DEA3"/>
</g>
<defs>
<clipPath id="clip0_4058_2819">
<rect width="1024" height="1024" fill="white"/>
</clipPath>
</defs>
</svg>
