<svg width="105" height="105" viewBox="0 0 105 105" fill="none" xmlns="http://www.w3.org/2000/svg">
<path d="M38 44H68" stroke="#CCCCCC" stroke-width="8" stroke-linecap="round" stroke-linejoin="round"/>
<path d="M38 58H68" stroke="#CCCCCC" stroke-width="8" stroke-linecap="round" stroke-linejoin="round"/>
<path d="M87.7685 30.8191C88.3757 31.4013 88.6793 31.6924 88.8396 32.0684C89 32.4444 89 32.865 89 33.7062V93C89 94.8856 89 95.8284 88.4142 96.4142C87.8284 97 86.8856 97 85 97H20C18.1144 97 17.1716 97 16.5858 96.4142C16 95.8284 16 94.8856 16 93L16 11C16 9.11438 16 8.17157 16.5858 7.58579C17.1716 7 18.1144 7 20 7H61.3207C62.1146 7 62.5115 7 62.8706 7.14432C63.2296 7.28863 63.5161 7.56338 64.0891 8.11287L87.7685 30.8191Z" stroke="#CCCCCC" stroke-width="8" stroke-linejoin="round"/>
</svg>
