<svg width="12" height="12" viewBox="0 0 12 12" fill="none" xmlns="http://www.w3.org/2000/svg">
<g clip-path="url(#clip0_3968_5161)">
<path fill-rule="evenodd" clip-rule="evenodd" d="M9.64328 0.105889C9.57296 0.035587 9.4776 -0.00390625 9.37816 -0.00390625C9.27872 -0.00390625 9.18336 0.035587 9.11304 0.105889L7.87778 1.34114L10.658 4.12139L11.8933 2.88689C11.9282 2.85205 11.9559 2.81067 11.9748 2.76511C11.9937 2.71956 12.0035 2.67071 12.0035 2.62139C12.0035 2.57206 11.9937 2.52322 11.9748 2.47766C11.9559 2.4321 11.9282 2.39072 11.8933 2.35589L9.64328 0.105889ZM10.1278 4.65164L7.34753 1.87139L2.47253 6.74639H2.62778C2.72724 6.74639 2.82262 6.7859 2.89295 6.85622C2.96328 6.92655 3.00278 7.02193 3.00278 7.12139V7.49639H3.37778C3.47724 7.49639 3.57262 7.5359 3.64295 7.60622C3.71328 7.67655 3.75278 7.77193 3.75278 7.87139V8.24639H4.12778C4.22724 8.24639 4.32262 8.2859 4.39295 8.35622C4.46328 8.42655 4.50278 8.52193 4.50278 8.62139V8.99639H4.87778C4.97724 8.99639 5.07262 9.0359 5.14295 9.10622C5.21328 9.17655 5.25278 9.27193 5.25278 9.37139V9.52664L10.1278 4.65164ZM4.52678 10.2526C4.511 10.2107 4.50287 10.1662 4.50278 10.1214V9.74639H4.12778C4.02833 9.74639 3.93295 9.70688 3.86262 9.63655C3.79229 9.56623 3.75278 9.47084 3.75278 9.37139V8.99639H3.37778C3.27833 8.99639 3.18295 8.95688 3.11262 8.88655C3.04229 8.81623 3.00278 8.72084 3.00278 8.62139V8.24639H2.62778C2.52833 8.24639 2.43295 8.20688 2.36262 8.13655C2.29229 8.06623 2.25278 7.97084 2.25278 7.87139V7.49639H1.87778C1.83295 7.49632 1.78849 7.48819 1.74653 7.47239L1.61228 7.60589C1.57655 7.64188 1.54848 7.68474 1.52978 7.73189L0.0297842 11.4819C0.00250624 11.55 -0.00417138 11.6247 0.0105792 11.6966C0.0253298 11.7685 0.0608599 11.8345 0.112765 11.8864C0.16467 11.9383 0.230667 11.9738 0.302574 11.9886C0.374481 12.0033 0.449136 11.9967 0.517284 11.9694L4.26728 10.4694C4.31443 10.4507 4.3573 10.4226 4.39328 10.3869L4.52678 10.2534V10.2526Z" fill="white"/>
</g>
<defs>
<clipPath id="clip0_3968_5161">
<rect width="12" height="12" fill="white"/>
</clipPath>
</defs>
</svg>
