<svg width="20" height="20" viewBox="0 0 20 20" fill="none" xmlns="http://www.w3.org/2000/svg">
<path d="M12 10.5C12 11.8807 11.1046 13 10 13C8.89543 13 8 11.8807 8 10.5C8 9.11929 8.89543 8 10 8C11.1046 8 12 9.11929 12 10.5Z" stroke="#323232" stroke-width="2"/>
<path d="M5.5 5.75736C7.98528 3.41421 12.0147 3.41421 14.5 5.75736L15.913 7.08957C17.3607 8.45445 18.0845 9.13688 18.0845 10C18.0845 10.8631 17.3607 11.5456 15.913 12.9104L14.5 14.2426C12.0147 16.5858 7.98528 16.5858 5.5 14.2426L4.08697 12.9104C2.63931 11.5456 1.91548 10.8631 1.91548 10C1.91548 9.13688 2.63931 8.45444 4.08697 7.08957L5.5 5.75736Z" stroke="#323232" stroke-width="2" stroke-linejoin="round"/>
</svg>
