<svg width="12" height="12" viewBox="0 0 12 12" fill="none" xmlns="http://www.w3.org/2000/svg">
<path d="M10.125 1.96875H1.875C1.70095 1.96875 1.53403 2.03789 1.41096 2.16096C1.28789 2.28403 1.21875 2.45095 1.21875 2.625V9.375C1.21875 9.54905 1.28789 9.71597 1.41096 9.83904C1.53403 9.96211 1.70095 10.0312 1.875 10.0312H10.125C10.299 10.0312 10.466 9.96211 10.589 9.83904C10.7121 9.71597 10.7812 9.54905 10.7812 9.375V2.625C10.7812 2.45095 10.7121 2.28403 10.589 2.16096C10.466 2.03789 10.299 1.96875 10.125 1.96875ZM1.875 2.53125H10.125C10.1499 2.53125 10.1737 2.54113 10.1913 2.55871C10.2089 2.57629 10.2188 2.60014 10.2188 2.625V7.66734L8.83734 6.28594C8.7764 6.22499 8.70406 6.17665 8.62443 6.14366C8.54481 6.11068 8.45947 6.0937 8.37328 6.0937C8.2871 6.0937 8.20175 6.11068 8.12213 6.14366C8.04251 6.17665 7.97016 6.22499 7.90922 6.28594L6.90516 7.29L4.77656 5.16094C4.71562 5.09999 4.64328 5.05165 4.56365 5.01866C4.48403 4.98568 4.39869 4.9687 4.3125 4.9687C4.22631 4.9687 4.14097 4.98568 4.06135 5.01866C3.98172 5.05165 3.90938 5.09999 3.84844 5.16094L1.78125 7.22812V2.625C1.78125 2.60014 1.79113 2.57629 1.80871 2.55871C1.82629 2.54113 1.85014 2.53125 1.875 2.53125ZM1.78125 9.375V8.02359L4.24594 5.55891C4.25465 5.55012 4.26502 5.54314 4.27645 5.53838C4.28787 5.53363 4.30012 5.53118 4.3125 5.53118C4.32488 5.53118 4.33713 5.53363 4.34855 5.53838C4.35998 5.54314 4.37035 5.55012 4.37906 5.55891L8.28891 9.46875H1.875C1.85014 9.46875 1.82629 9.45887 1.80871 9.44129C1.79113 9.42371 1.78125 9.39986 1.78125 9.375ZM10.125 9.46875H9.08438L7.30313 7.6875L8.30672 6.68344C8.31543 6.67472 8.32577 6.66781 8.33715 6.66309C8.34853 6.65837 8.36073 6.65594 8.37305 6.65594C8.38537 6.65594 8.39757 6.65837 8.40895 6.66309C8.42033 6.66781 8.43067 6.67472 8.43937 6.68344L10.2206 8.46469V9.375C10.2206 9.38747 10.2181 9.39982 10.2133 9.41131C10.2085 9.42281 10.2014 9.43323 10.1925 9.44196C10.1836 9.45069 10.173 9.45756 10.1615 9.46216C10.1499 9.46676 10.1375 9.469 10.125 9.46875ZM6.84375 4.6875C6.84375 4.59479 6.87124 4.50416 6.92275 4.42708C6.97426 4.34999 7.04746 4.28991 7.13312 4.25443C7.21877 4.21895 7.31302 4.20967 7.40395 4.22776C7.49488 4.24584 7.5784 4.29049 7.64396 4.35604C7.70951 4.4216 7.75416 4.50512 7.77224 4.59605C7.79033 4.68698 7.78105 4.78123 7.74557 4.86688C7.71009 4.95254 7.65001 5.02574 7.57292 5.07725C7.49584 5.12876 7.40521 5.15625 7.3125 5.15625C7.18818 5.15625 7.06895 5.10686 6.98104 5.01896C6.89314 4.93105 6.84375 4.81182 6.84375 4.6875Z" fill="white"/>
</svg>
