<svg width="495" height="511" viewBox="0 0 495 511" fill="none" xmlns="http://www.w3.org/2000/svg">
<path d="M446.068 48.0562C381.993 -16.0187 278.106 -16.0187 214.03 48.0562C163.173 98.9132 152.689 174.848 182.564 236.053L136.873 281.744C136.534 282.084 136.266 282.488 136.085 282.933C135.905 283.378 135.815 283.854 135.821 284.334L136.224 312.887C136.231 313.367 136.142 313.844 135.961 314.289C135.78 314.734 135.512 315.138 135.172 315.477L111.293 339.356C110.875 339.775 110.359 340.084 109.792 340.255C109.225 340.426 108.625 340.454 108.044 340.337L85.1565 335.727C84.576 335.61 83.9757 335.639 83.4089 335.81C82.8421 335.981 82.3263 336.29 81.9075 336.708L56.5685 362.049C55.9396 362.678 55.5665 363.518 55.5215 364.406L54.0635 393.074C54.039 393.555 53.9182 394.025 53.7084 394.458C53.4985 394.891 53.2039 395.277 52.8419 395.594C52.48 395.911 52.058 396.152 51.6012 396.303C51.1444 396.453 50.6619 396.511 50.1825 396.471L25.9365 394.475C25.4169 394.432 24.8943 394.503 24.4048 394.683C23.9154 394.862 23.471 395.147 23.1025 395.515L1.05247 417.565C0.718816 417.899 0.454129 418.295 0.27354 418.73C0.0929506 419.166 0 419.633 0 420.105C0 420.576 0.0929506 421.043 0.27354 421.479C0.454129 421.915 0.718816 422.311 1.05247 422.644L11.9905 433.581C12.3241 433.915 12.5888 434.311 12.7694 434.746C12.95 435.182 13.0429 435.649 13.0429 436.121C13.0429 436.592 12.95 437.059 12.7694 437.495C12.5888 437.931 12.3241 438.327 11.9905 438.66L3.65147 446.999C2.99868 447.653 2.62234 448.532 2.60047 449.455L1.45447 498.605C1.44317 499.091 1.53048 499.574 1.71113 500.024C1.89178 500.475 2.16201 500.885 2.50547 501.228L10.2985 509.021C11.0185 509.741 12.0095 510.121 13.0255 510.068L60.7465 507.578C61.633 507.532 62.4711 507.159 63.0985 506.531L258.072 311.558C319.277 341.433 395.211 330.949 446.068 280.092C510.144 216.018 510.144 112.131 446.068 48.0562ZM422.257 124.494C407.725 139.026 384.162 139.026 369.63 124.494C355.098 109.962 355.098 86.4003 369.63 71.8683C384.162 57.3363 407.725 57.3363 422.257 71.8683C436.788 86.4003 436.788 109.962 422.257 124.494Z" fill="#4A58F5"/>
</svg>
