<svg width="12" height="12" viewBox="0 0 12 12" fill="none" xmlns="http://www.w3.org/2000/svg">
<path d="M6.8889 9.36083C6.9156 9.3875 6.93678 9.41917 6.95123 9.45404C6.96568 9.4889 6.97312 9.52626 6.97312 9.564C6.97312 9.60174 6.96568 9.63911 6.95123 9.67397C6.93678 9.70883 6.9156 9.7405 6.8889 9.76717L6.41269 10.2429C5.92793 10.7277 5.27045 11 4.58489 11C3.89934 11 3.24186 10.7277 2.7571 10.2429C2.27234 9.75814 2 9.10067 2 8.41511C2 7.72955 2.27234 7.07208 2.7571 6.58732L3.91102 5.43292C4.3771 4.9663 5.00395 4.69553 5.66319 4.67604C6.32242 4.65656 6.96417 4.88983 7.457 5.32811C7.48529 5.35325 7.50834 5.38371 7.52485 5.41776C7.54136 5.45181 7.551 5.48878 7.55322 5.52656C7.55545 5.56433 7.5502 5.60218 7.5378 5.63793C7.5254 5.67368 7.50607 5.70664 7.48093 5.73492C7.45579 5.76321 7.42533 5.78626 7.39128 5.80277C7.35723 5.81928 7.32026 5.82892 7.28248 5.83114C7.24471 5.83336 7.20686 5.82812 7.17111 5.81572C7.13536 5.80332 7.1024 5.78399 7.07412 5.75885C6.69083 5.41837 6.19194 5.23721 5.67949 5.25242C5.16704 5.26764 4.67977 5.47808 4.31735 5.84069L3.16295 6.99317C2.78583 7.3703 2.57397 7.88178 2.57397 8.41511C2.57397 8.94844 2.78583 9.45993 3.16295 9.83705C3.54008 10.2142 4.05156 10.426 4.58489 10.426C5.11822 10.426 5.62971 10.2142 6.00683 9.83705L6.48256 9.36083C6.50923 9.33413 6.5409 9.31295 6.57576 9.2985C6.61063 9.28405 6.64799 9.27661 6.68573 9.27661C6.72347 9.27661 6.76084 9.28405 6.7957 9.2985C6.83056 9.31295 6.86223 9.33413 6.8889 9.36083ZM10.2425 2.75608C9.75741 2.27192 9.10005 2 8.41469 2C7.72934 2 7.07198 2.27192 6.5869 2.75608L6.11069 3.23182C6.0568 3.2857 6.02653 3.35878 6.02653 3.43498C6.02653 3.51119 6.0568 3.58427 6.11069 3.63815C6.16457 3.69204 6.23765 3.72231 6.31385 3.72231C6.39006 3.72231 6.46314 3.69204 6.51702 3.63815L6.99276 3.15955C7.36988 2.78243 7.88136 2.57056 8.41469 2.57056C8.94802 2.57056 9.45951 2.78243 9.83663 3.15955C10.2138 3.53667 10.4256 4.04815 10.4256 4.58148C10.4256 5.11481 10.2138 5.6263 9.83663 6.00342L8.68223 7.16116C8.31982 7.52378 7.83255 7.73422 7.3201 7.74943C6.80765 7.76465 6.30875 7.58349 5.92547 7.24301C5.86835 7.19223 5.7934 7.16623 5.7171 7.17072C5.64081 7.17521 5.56942 7.20982 5.51865 7.26694C5.46788 7.32406 5.44187 7.39901 5.44636 7.4753C5.45085 7.55159 5.48546 7.62298 5.54258 7.67375C6.03536 8.11174 6.6769 8.34485 7.33591 8.32537C7.99492 8.30588 8.62157 8.03528 9.08761 7.56894L10.2415 6.41454C10.4819 6.17458 10.6726 5.88959 10.8027 5.57587C10.9329 5.26216 10.9999 4.92587 11 4.58623C11.0001 4.24659 10.9332 3.91026 10.8033 3.59648C10.6733 3.2827 10.4827 2.99761 10.2425 2.75752V2.75608Z" fill="white"/>
<path d="M10.6061 10.1061C10.6646 10.0475 10.6646 9.95251 10.6061 9.89393L9.65147 8.93934C9.59289 8.88076 9.49792 8.88076 9.43934 8.93934C9.38076 8.99792 9.38076 9.09289 9.43934 9.15147L10.2879 10L9.43934 10.8485C9.38076 10.9071 9.38076 11.0021 9.43934 11.0607C9.49792 11.1192 9.59289 11.1192 9.65147 11.0607L10.6061 10.1061ZM7 10.15H10.5V9.85H7V10.15Z" fill="white"/>
</svg>
