<svg width="9" height="12" viewBox="0 0 9 12" fill="none" xmlns="http://www.w3.org/2000/svg">
<path fill-rule="evenodd" clip-rule="evenodd" d="M7.36364 5.80645H1.63636C1.41937 5.80645 1.21126 5.88802 1.05782 6.03321C0.904383 6.1784 0.818182 6.37532 0.818182 6.58065V10.4516C0.818182 10.6569 0.904383 10.8539 1.05782 10.9991C1.21126 11.1442 1.41937 11.2258 1.63636 11.2258H7.36364C7.58063 11.2258 7.78874 11.1442 7.94218 10.9991C8.09562 10.8539 8.18182 10.6569 8.18182 10.4516V6.58065C8.18182 6.37532 8.09562 6.1784 7.94218 6.03321C7.78874 5.88802 7.58063 5.80645 7.36364 5.80645ZM1.63636 5.03226C1.20237 5.03226 0.786157 5.19539 0.47928 5.48577C0.172402 5.77615 0 6.16999 0 6.58065V10.4516C0 10.8623 0.172402 11.2561 0.47928 11.5465C0.786157 11.8369 1.20237 12 1.63636 12H7.36364C7.79763 12 8.21384 11.8369 8.52072 11.5465C8.8276 11.2561 9 10.8623 9 10.4516V6.58065C9 6.16999 8.8276 5.77615 8.52072 5.48577C8.21384 5.19539 7.79763 5.03226 7.36364 5.03226H1.63636ZM1.63636 2.70968C1.63636 1.99103 1.93807 1.30181 2.4751 0.793646C3.01214 0.285483 3.74052 0 4.5 0C5.25948 0 5.98786 0.285483 6.5249 0.793646C7.06193 1.30181 7.36364 1.99103 7.36364 2.70968V5.03226H6.54545V2.70968C6.54545 2.19636 6.32995 1.70406 5.94635 1.34108C5.56276 0.97811 5.04249 0.774194 4.5 0.774194C3.95751 0.774194 3.43724 0.97811 3.05365 1.34108C2.67005 1.70406 2.45455 2.19636 2.45455 2.70968V5.03226H1.63636V2.70968Z" fill="white"/>
</svg>
