<svg width="157" height="48" viewBox="0 0 157 48" fill="none" xmlns="http://www.w3.org/2000/svg">
<path fill-rule="evenodd" clip-rule="evenodd" d="M33.5635 18.8141C35.9262 20.2757 37.9328 22.2564 39.4233 24.5967C37.8968 26.9935 35.8291 29.0131 33.3918 30.4843C32.4944 31.6952 31.3309 32.7269 29.9784 33.5088C34.3893 32.0815 38.1193 29.1471 40.5584 25.317C40.8385 24.8775 40.8385 24.316 40.5584 23.8764C38.2101 20.1888 34.6649 17.3314 30.4677 15.8501C31.6974 16.6437 32.7508 17.6514 33.5635 18.8141ZM16.9962 15.9604C12.9321 17.4707 9.50142 20.2784 7.20995 23.8764C6.93002 24.316 6.93002 24.8775 7.20995 25.317C9.59105 29.0558 13.2022 31.9412 17.476 33.4043C16.1434 32.6024 15.0024 31.555 14.1293 30.3323C11.7994 28.8753 9.81976 26.912 8.34527 24.5967C9.78481 22.3363 11.7058 20.4114 13.9642 18.9656C14.754 17.7927 15.786 16.7714 16.9962 15.9604Z" fill="#4659FE"/>
<path fill-rule="evenodd" clip-rule="evenodd" d="M31.3939 21.5316C30.5454 19.3925 28.8069 17.6204 26.4631 16.8043C22.2161 15.3254 17.5773 17.5407 16.0498 21.7567L14.6254 21.7776C14.6624 21.6559 14.7021 21.5343 14.7443 21.413C16.4791 16.4313 21.9238 13.7991 26.9055 15.5338C29.8051 16.5435 31.9087 18.8101 32.8186 21.5107L31.3939 21.5316Z" fill="#4659FE"/>
<path d="M16.5566 22.7571C16.2878 23.5289 15.4443 23.9367 14.6725 23.668C13.9007 23.3992 13.4928 22.5556 13.7616 21.7838C14.0303 21.012 14.8739 20.6042 15.6457 20.873C16.4175 21.1417 16.8254 21.9853 16.5566 22.7571Z" fill="#4659FE"/>
<path fill-rule="evenodd" clip-rule="evenodd" d="M15.9845 27.2414C16.8331 29.3805 18.5715 31.1525 20.9153 31.9687C25.1624 33.4476 29.8011 31.2323 31.3286 27.0162L32.7531 26.9954C32.716 27.1171 32.6763 27.2387 32.6341 27.36C30.8994 32.3417 25.4547 34.9739 20.4729 33.2391C17.5734 32.2295 15.4697 29.9629 14.5599 27.2623L15.9845 27.2414Z" fill="#4659FE"/>
<path d="M30.8218 26.0165C31.0906 25.2447 31.9342 24.8369 32.706 25.1057C33.4778 25.3744 33.8856 26.218 33.6168 26.9898C33.3481 27.7616 32.5045 28.1694 31.7327 27.9006C30.9609 27.6319 30.5531 26.7883 30.8218 26.0165Z" fill="#4659FE"/>
<path fill-rule="evenodd" clip-rule="evenodd" d="M23.8854 31.0305C27.3929 31.0305 30.2363 28.1177 30.2363 24.5246C30.2363 20.9316 27.3929 18.0188 23.8854 18.0188C20.3779 18.0188 17.5344 20.9316 17.5344 24.5246C17.5344 28.1177 20.3779 31.0305 23.8854 31.0305ZM25.9544 22.7707C25.9544 23.5531 25.5369 24.2356 24.9177 24.5971L25.4309 27.6556C25.4864 27.9869 25.2374 28.2896 24.9092 28.2896H22.8283C22.5001 28.2896 22.2511 27.9869 22.3067 27.6556L22.8263 24.5587C22.242 24.1885 21.8528 23.5262 21.8528 22.7707C21.8528 21.6104 22.771 20.6698 23.9036 20.6698C25.0362 20.6698 25.9544 21.6104 25.9544 22.7707Z" fill="#4659FE"/>
<path d="M66.14 26.456H62.598V32H59.782V15.918H66.14C69.374 15.918 71.464 18.03 71.464 21.176C71.464 24.278 69.352 26.456 66.14 26.456ZM65.59 18.426H62.598V23.948H65.546C67.482 23.948 68.516 22.914 68.516 21.154C68.516 19.394 67.46 18.426 65.59 18.426ZM80.2568 21.088V23.574H79.2668C77.3308 23.574 76.1208 24.608 76.1208 26.72V32H73.4368V21.154H75.9668L76.1208 22.738C76.5828 21.66 77.6168 20.934 79.0688 20.934C79.4428 20.934 79.8168 20.978 80.2568 21.088ZM83.4155 18.954C82.4915 18.954 81.7655 18.228 81.7655 17.326C81.7655 16.424 82.4915 15.72 83.4155 15.72C84.2955 15.72 85.0215 16.424 85.0215 17.326C85.0215 18.228 84.2955 18.954 83.4155 18.954ZM82.0735 32V21.132H84.7575V32H82.0735ZM90.6105 32L86.2985 21.132H89.1585L91.0505 26.126C91.5125 27.424 91.8865 28.546 92.0185 29.14C92.1725 28.458 92.5685 27.314 93.0305 26.126L95.0105 21.132H97.7825L93.2505 32H90.6105ZM102.022 32.286C99.7123 32.286 98.3043 30.944 98.3043 28.898C98.3043 26.896 99.7563 25.642 102.33 25.444L105.586 25.202V24.96C105.586 23.486 104.706 22.892 103.342 22.892C101.758 22.892 100.878 23.552 100.878 24.696H98.5903C98.5903 22.342 100.526 20.802 103.474 20.802C106.4 20.802 108.204 22.386 108.204 25.4V32H105.85L105.652 30.394C105.19 31.516 103.716 32.286 102.022 32.286ZM102.902 30.262C104.552 30.262 105.608 29.272 105.608 27.6V27.028L103.342 27.204C101.67 27.358 101.032 27.908 101.032 28.788C101.032 29.778 101.692 30.262 102.902 30.262ZM114.387 32H111.703V23.376H109.613V21.132H111.703V17.744H114.387V21.132H116.499V23.376H114.387V32ZM122.922 32.286C119.688 32.286 117.422 29.932 117.422 26.566C117.422 23.156 119.644 20.802 122.834 20.802C126.09 20.802 128.158 22.98 128.158 26.368V27.182L119.974 27.204C120.172 29.118 121.184 30.086 122.966 30.086C124.44 30.086 125.408 29.514 125.716 28.48H128.202C127.74 30.856 125.76 32.286 122.922 32.286ZM122.856 23.002C121.272 23.002 120.304 23.86 120.04 25.488H125.496C125.496 23.992 124.462 23.002 122.856 23.002ZM138.018 32H135.092L140.9 15.918H143.782L149.59 32H146.62L145.322 28.282H139.316L138.018 32ZM141.978 20.714L140.152 25.906H144.508L142.66 20.714C142.528 20.296 142.374 19.812 142.33 19.482C142.264 19.79 142.132 20.274 141.978 20.714ZM154.422 15.918V32H151.606V15.918H154.422Z" fill="#4659FE"/>
</svg>
