
<svg width="122px" height="105px" viewBox="0 0 122 105" version="1.1" xmlns="http://www.w3.org/2000/svg" xmlns:xlink="http://www.w3.org/1999/xlink">
    <defs>
        <rect id="path-1" x="0" y="0" width="125" height="125"></rect>
    </defs>
    <g id="Page-1" stroke="none" stroke-width="1" fill="none" fill-rule="evenodd">
        <g id="MaticIcon" transform="translate(-2.000000, -10.000000)">
            <g id="favicon">
                <g id="Mask_Group_3-Clipped">
                    <mask id="mask-2" fill="white">
                        <use xlink:href="#path-1"></use>
                    </mask>
                    <g id="Rectangle_32"></g>
                    <g id="Mask_Group_3" mask="url(#mask-2)" fill="#8247E5">
                        <g transform="translate(1.000000, 10.000000)" id="Path_151">
                            <path d="M92.487,31.789 C90.1240126,30.4683155 87.2449874,30.4683155 84.882,31.789 L67.434,41.909 L55.579,48.509 L38.132,58.629 C35.7687096,59.9485209 32.8902904,59.9485209 30.527,58.629 L16.658,50.709 C14.3630237,49.3929495 12.9221313,46.973767 12.858,44.329 L12.858,28.709 C12.8261592,26.0375012 14.2938086,23.573395 16.658,22.329 L30.303,14.629 C32.6662904,13.3094791 35.5447096,13.3094791 37.908,14.629 L51.553,22.329 C53.8479763,23.6450505 55.2888687,26.064233 55.353,28.709 L55.353,38.829 L67.208,32.009 L67.208,21.889 C67.2398408,19.2175012 65.7721914,16.753395 63.408,15.509 L38.132,0.99 C35.7687096,-0.329520938 32.8902904,-0.329520938 30.527,0.99 L4.8,15.51 C2.43613159,16.7542307 0.968536673,19.2178591 1,21.889 L1,51.149 C0.968159179,53.8204988 2.43580861,56.284605 4.8,57.529 L30.524,72.049 C32.8872904,73.3685209 35.7657096,73.3685209 38.129,72.049 L55.576,62.149 L67.431,55.329 L84.879,45.429 C87.2419874,44.1083155 90.1210126,44.1083155 92.484,45.429 L106.129,53.129 C108.423834,54.4451956 109.864673,56.8642894 109.929,59.509 L109.929,75.129 C109.960841,77.8004988 108.493191,80.264605 106.129,81.509 L92.484,89.429 C90.1207096,90.7485209 87.2422904,90.7485209 84.879,89.429 L71.234,81.729 C68.9391664,80.4128044 67.4983269,77.9937106 67.434,75.349 L67.434,65.228 L55.579,72.048 L55.579,82.168 C55.5471592,84.8394988 57.0148086,87.303605 59.379,88.548 L85.103,103.068 C87.4662904,104.387521 90.3447096,104.387521 92.708,103.068 L118.432,88.548 C120.726834,87.2318044 122.167673,84.8127106 122.232,82.168 L122.232,52.909 C122.263841,50.2375012 120.796191,47.773395 118.432,46.529 L92.487,31.789 Z"></path>
                        </g>
                    </g>
                </g>
            </g>
        </g>
    </g>
</svg>