<svg width="16" height="16" viewBox="0 0 16 16" fill="none" xmlns="http://www.w3.org/2000/svg">
<path fill-rule="evenodd" clip-rule="evenodd" d="M2 7.75732C2 4.44362 4.68629 1.75732 8 1.75732C11.3137 1.75732 14 4.44362 14 7.75732C14 11.071 11.3137 13.7573 8 13.7573C4.68629 13.7573 2 11.071 2 7.75732ZM8 0.257324C3.85786 0.257324 0.5 3.61519 0.5 7.75732C0.5 11.8995 3.85786 15.2573 8 15.2573C12.1421 15.2573 15.5 11.8995 15.5 7.75732C15.5 3.61519 12.1421 0.257324 8 0.257324ZM8 11.8826C7.58579 11.8826 7.25 11.5468 7.25 11.1326V6.65656C7.25 6.24234 7.58579 5.90656 8 5.90656C8.41421 5.90656 8.75 6.24234 8.75 6.65656V11.1326C8.75 11.5468 8.41421 11.8826 8 11.8826ZM7.25 4.38162C7.25 3.96768 7.58579 3.63211 8 3.63211C8.41421 3.63211 8.75 3.96768 8.75 4.38162C8.75 4.79556 8.41421 5.13113 8 5.13113C7.58579 5.13113 7.25 4.79556 7.25 4.38162Z" fill="#8CA3B8"/>
</svg>
