<svg width="28" height="28" viewBox="0 0 28 28" fill="none" xmlns="http://www.w3.org/2000/svg">
<path d="M10.5 21C10.5 21 10.5 24.5 14.0542 24.5C17.6084 24.5 17.6084 21 17.6084 21" stroke="#323232" stroke-width="2" stroke-linejoin="round"/>
<path d="M8.16304 8.98703L6.29498 18.6192C6.05559 19.8536 7.00106 21 8.2584 21H10.4999H17.4999H19.7414C20.9988 21 21.9442 19.8536 21.7049 18.6192L19.8368 8.98703C19.8344 8.97484 19.8321 8.96344 19.8294 8.95133C19.7526 8.61433 18.5128 3.5 13.9999 3.5C9.487 3.5 8.24726 8.61433 8.17047 8.95133C8.16771 8.96344 8.1654 8.97484 8.16304 8.98703Z" stroke="#323232" stroke-width="2" stroke-linejoin="round"/>
</svg>
