<svg width="105" height="105" viewBox="0 0 105 105" fill="none" xmlns="http://www.w3.org/2000/svg">
<rect width="105" height="105" transform="matrix(-1 0 0 1 105 0)" fill="none"/>
<rect width="46" height="46" transform="translate(41 18)" fill="none"/>
<path d="M79.6971 30.3104C80.3389 30.8964 80.6598 31.1894 80.8299 31.575C81 31.9607 81 32.3952 81 33.2643L81 47C81 48.8856 81 49.8284 80.4142 50.4142C79.8284 51 78.8856 51 77 51H62C60.1144 51 59.1716 51 58.5858 50.4142C58 49.8284 58 48.8856 58 47L58 28C58 26.1144 58 25.1716 58.5858 24.5858C59.1716 24 60.1144 24 62 24H71.2343C72.001 24 72.3843 24 72.7332 24.1353C73.0822 24.2707 73.3652 24.5291 73.9314 25.0461L79.6971 30.3104Z" stroke="#CCCCCC" stroke-width="5" stroke-linejoin="round"/>
<path d="M57.5 32L50 32C48.1144 32 47.1716 32 46.5858 32.5858C46 33.1716 46 34.1144 46 36L46 55C46 56.8856 46 57.8284 46.5858 58.4142C47.1716 59 48.1144 59 50 59H65C66.8856 59 67.8284 59 68.4142 58.4142C69 57.8284 69 56.8856 69 55L69 51.2857" stroke="#CCCCCC" stroke-width="5" stroke-linejoin="round"/>
<path d="M38 67L8 97" stroke="#CCCCCC" stroke-width="8" stroke-linecap="round" stroke-linejoin="round"/>
<path d="M29 41.5C29 60.5538 44.4462 76 63.5 76C82.5538 76 98 60.5538 98 41.5C98 22.4462 82.5538 7 63.5 7C44.4462 7 29 22.4462 29 41.5Z" stroke="#CCCCCC" stroke-width="8"/>
</svg>
