<svg width="1109" height="1109" viewBox="0 0 1109 1109" fill="none" xmlns="http://www.w3.org/2000/svg">
<g clip-path="url(#clip0_4058_2821)">
<path d="M553.483 1109C514.821 1109 486.332 1080.51 480.228 1039.81C421.217 693.888 435.461 685.749 69.1854 628.772C24.4183 620.633 0 594.179 0 555.517C0 518.89 24.4183 488.367 63.0807 480.228C435.461 415.112 423.251 409.007 480.228 69.1852C486.332 28.488 514.821 0 553.483 0C592.145 0 622.668 30.5229 628.772 69.1852C685.749 415.112 673.539 425.287 1043.88 480.228C1082.55 486.332 1109 518.89 1109 555.517C1109 590.11 1084.58 620.633 1043.88 628.772C671.505 691.854 685.749 697.957 628.772 1043.88C622.668 1080.51 590.11 1109 553.483 1109Z" fill="#00DEA3"/>
</g>
<defs>
<clipPath id="clip0_4058_2821">
<rect width="1109" height="1109" fill="white"/>
</clipPath>
</defs>
</svg>
