<svg width="20" height="20" viewBox="0 0 20 20" fill="none" xmlns="http://www.w3.org/2000/svg">
<path d="M19 10C19.0005 10.2089 18.9451 10.4144 18.8392 10.5965C18.7332 10.7786 18.5804 10.9311 18.3954 11.0392L6.93454 17.8189C6.74132 17.9333 6.52001 17.9957 6.29347 17.9998C6.06693 18.0038 5.84338 17.9493 5.64591 17.8419C5.45031 17.7362 5.28738 17.582 5.17386 17.3951C5.06034 17.2083 5.00033 16.9956 5 16.7789V3.22109C5.00033 3.0044 5.06034 2.7917 5.17386 2.60487C5.28738 2.41804 5.45031 2.26382 5.64591 2.15807C5.84338 2.05065 6.06693 1.99615 6.29347 2.00021C6.52001 2.00427 6.74132 2.06673 6.93454 2.18114L18.3954 8.96082C18.5804 9.06887 18.7332 9.22136 18.8392 9.40346C18.9451 9.58556 19.0005 9.79107 19 10Z" fill="#20CD7E"/>
</svg>
