<svg width="24" height="24" viewBox="0 0 24 24" fill="none" xmlns="http://www.w3.org/2000/svg">
<rect width="24" height="24" fill="white"/>
<path d="M0 12C0 2.118 2.118 0 12 0C21.882 0 24 2.118 24 12C24 21.882 21.882 24 12 24C2.118 24 0 21.882 0 12Z" fill="#00DEA3"/>
<path d="M12.3223 10.9473L16.7512 9.99267V9.99267C17.0072 9.9375 17.17 9.68525 17.1148 9.42926V9.42926L16.1602 5.00031" stroke="white" stroke-width="2" stroke-linecap="round" stroke-linejoin="round"/>
<path d="M17.1342 14.1447C16.5919 16.1175 14.928 17.682 12.7736 17.9936C9.87204 18.4133 7.17963 16.4014 6.75993 13.4998C6.34023 10.5983 8.35217 7.90586 11.2537 7.48616C13.0818 7.22174 14.8268 7.92251 15.9728 9.20284" stroke="white" stroke-width="2" stroke-linecap="round"/>
</svg>
