<svg width="13" height="12" viewBox="0 0 13 12" fill="none" xmlns="http://www.w3.org/2000/svg">
<path d="M4.75 3.125V4H10.25C10.5815 4 10.8995 4.1317 11.1339 4.36612C11.3683 4.60054 11.5 4.91848 11.5 5.25V9.25C11.5 9.58152 11.3683 9.89946 11.1339 10.1339C10.8995 10.3683 10.5815 10.5 10.25 10.5H3.75C3.41848 10.5 3.10054 10.3683 2.86612 10.1339C2.6317 9.89946 2.5 9.58152 2.5 9.25V5.25C2.5 4.91848 2.6317 4.60054 2.86612 4.36612C3.10054 4.1317 3.41848 4 3.75 4H4V3.125C4 1.4225 5.2515 0 7 0C8.396 0 9.4855 0.9125 9.859 2.155C9.87454 2.20252 9.88042 2.25267 9.8763 2.3025C9.87217 2.35233 9.85813 2.40083 9.83498 2.44515C9.81184 2.48947 9.78007 2.52871 9.74153 2.56057C9.703 2.59243 9.65849 2.61626 9.61061 2.63067C9.56273 2.64507 9.51245 2.64975 9.46274 2.64444C9.41302 2.63913 9.36487 2.62393 9.32112 2.59974C9.27736 2.57554 9.23889 2.54284 9.20795 2.50356C9.17702 2.46428 9.15426 2.41921 9.141 2.371C8.855 1.42 8.0395 0.75 7 0.75C5.711 0.75 4.75 1.79 4.75 3.125ZM3.25 5.25V9.25C3.25 9.38261 3.30268 9.50979 3.39645 9.60355C3.49021 9.69732 3.61739 9.75 3.75 9.75H10.25C10.3826 9.75 10.5098 9.69732 10.6036 9.60355C10.6973 9.50979 10.75 9.38261 10.75 9.25V5.25C10.75 5.11739 10.6973 4.99021 10.6036 4.89645C10.5098 4.80268 10.3826 4.75 10.25 4.75H3.75C3.61739 4.75 3.49021 4.80268 3.39645 4.89645C3.30268 4.99021 3.25 5.11739 3.25 5.25Z" fill="white"/>
</svg>
