<svg width="71" height="71" viewBox="0 0 71 71" fill="none" xmlns="http://www.w3.org/2000/svg">
<path fill-rule="evenodd" clip-rule="evenodd" d="M0.113925 19.8659C0.113924 8.95827 8.9563 0.115888 19.8639 0.115887L51.1348 0.115892C62.0424 0.115891 70.8848 8.95827 70.8848 19.8659L70.8848 51.1367C70.8848 62.0443 62.0424 70.8867 51.1348 70.8867L19.8639 70.8867C8.9563 70.8867 0.113921 62.0443 0.11392 51.1367L0.113925 19.8659ZM45.7432 37.0204C46.7079 36.0569 46.7087 34.4937 45.7452 33.5291C44.7816 32.5644 43.2185 32.5636 42.2538 33.5271L37.9439 37.8322L37.9439 11.6367C37.9439 10.2733 36.8386 9.16797 35.4751 9.16797C34.1117 9.16797 33.0064 10.2733 33.0064 11.6367L33.0064 37.8653L28.6633 33.5271C27.6987 32.5636 26.1356 32.5644 25.172 33.5291C24.2084 34.4937 24.2093 36.0569 25.174 37.0204L32.659 44.497C34.2057 46.042 36.7115 46.042 38.2582 44.497L45.7432 37.0204ZM62.2383 41.6812C62.5827 40.362 61.7961 38.9994 60.4815 38.6378C59.1669 38.2762 57.822 39.0525 57.4776 40.3718C56.1743 45.3649 53.3036 49.7709 49.3193 52.9092C45.336 56.0467 40.4656 57.7398 35.4668 57.7398C30.4688 57.7398 25.6106 56.0476 21.6429 52.9223C17.6743 49.7964 14.8116 45.4057 13.5109 40.4226C13.1646 39.0959 11.8186 38.2909 10.5044 38.6245C9.19031 38.958 8.40572 40.3038 8.75201 41.6305C10.3254 47.658 13.7959 52.9969 18.6373 56.8103C23.4796 60.6244 29.4158 62.6935 35.5226 62.6935C41.6286 62.6935 47.5526 60.6252 52.3793 56.8234C57.2051 53.0223 60.6676 47.6989 62.2383 41.6812Z" fill="#CCCCCC"/>
</svg>
