<svg width="30" height="30" viewBox="0 0 30 30" fill="none" xmlns="http://www.w3.org/2000/svg">
<path d="M18.696 4C24.7108 4 26 5.28916 26 11.304L26 18.696C26 24.7108 24.7108 26 18.696 26L11.304 26C5.28916 26 4 24.7108 4 18.696L4 11.304C4 5.28915 5.28916 4 11.304 4L18.696 4Z" stroke="#4659FE" stroke-width="2"/>
<path d="M19 12C19 14.2091 17.2091 16 15 16C12.7909 16 11 14.2091 11 12C11 9.79086 12.7909 8 15 8C17.2091 8 19 9.79086 19 12Z" stroke="#4659FE" stroke-width="2"/>
<path d="M7 24C7.85092 20.9237 10.04 20 15 20C19.96 20 22.1491 20.9237 23 24" stroke="#4659FE" stroke-width="2" stroke-linecap="round"/>
</svg>
