<svg width="16" height="16" viewBox="0 0 16 16" fill="none" xmlns="http://www.w3.org/2000/svg">
<path d="M8.00008 3C4.66675 3 1.82008 5.07333 0.666748 8C1.82008 10.9267 4.66675 13 8.00008 13C8.24008 13 8.48008 13 8.72008 12.9667C8.68578 12.7573 8.66795 12.5455 8.66675 12.3333C8.66675 12.0933 8.69342 11.8533 8.73342 11.6133C8.49342 11.64 8.24675 11.6667 8.00008 11.6667C5.49341 11.6667 3.22008 10.24 2.12008 8C2.65892 6.8998 3.49562 5.97283 4.53507 5.3245C5.57452 4.67616 6.77501 4.33245 8.00008 4.33245C9.22515 4.33245 10.4256 4.67616 11.4651 5.3245C12.5045 5.97283 13.3412 6.8998 13.8801 8C13.8001 8.16 13.7067 8.3 13.6201 8.45333C14.0601 8.56 14.4801 8.74 14.8601 9C15.0401 8.66667 15.2001 8.33333 15.3334 8C14.1801 5.07333 11.3334 3 8.00008 3ZM8.00008 6C6.89341 6 6.00008 6.89333 6.00008 8C6.00008 9.10667 6.89341 10 8.00008 10C9.10675 10 10.0001 9.10667 10.0001 8C10.0001 6.89333 9.10675 6 8.00008 6ZM12.0001 10V11.3333H14.6667V12.6667H12.0001V14L10.0001 12L12.0001 10Z" fill="white"/>
</svg>
