<svg width="24" height="24" viewBox="0 0 24 24" fill="none" xmlns="http://www.w3.org/2000/svg">
<path d="M3 8C3 7.06812 3 6.60218 3.15224 6.23463C3.35523 5.74458 3.74458 5.35523 4.23463 5.15224C4.60218 5 5.06812 5 6 5V5H18V5C18.9319 5 19.3978 5 19.7654 5.15224C20.2554 5.35523 20.6448 5.74458 20.8478 6.23463C21 6.60218 21 7.06812 21 8V16C21 16.9319 21 17.3978 20.8478 17.7654C20.6448 18.2554 20.2554 18.6448 19.7654 18.8478C19.3978 19 18.9319 19 18 19V19H6V19C5.06812 19 4.60218 19 4.23463 18.8478C3.74458 18.6448 3.35523 18.2554 3.15224 17.7654C3 17.3978 3 16.9319 3 16V8Z" stroke="white" stroke-width="2" stroke-linejoin="round"/>
<path d="M14 13H21M3 9V6.8427C3 6.03059 3.49108 5.2991 4.24273 4.99161L12.6781 1.54078C13.4689 1.21727 14.3779 1.43185 14.9405 2.07487L17.5 5" stroke="white" stroke-width="2" stroke-linecap="round" stroke-linejoin="round"/>
</svg>
