<svg width="10" height="12" viewBox="0 0 10 12" fill="none" xmlns="http://www.w3.org/2000/svg">
<g clip-path="url(#clip0_3862_4721)">
<path d="M7.9918 8.33571H7.37705V7.96686C7.37705 7.77014 7.47541 7.67178 7.67213 7.67178H7.69672C7.89344 7.67178 7.9918 7.77014 7.9918 7.96686V8.33571ZM5.65574 7.54883C5.45902 7.54883 5.36066 7.6308 5.36066 7.79473V9.54063C5.36066 9.70457 5.45902 9.78653 5.65574 9.78653C5.85246 9.78653 5.95082 9.70457 5.95082 9.54063V7.79473C5.95082 7.6308 5.85246 7.54883 5.65574 7.54883ZM9.44262 6.56522V9.90948C9.44262 10.3193 9.29098 10.6636 8.9877 10.9423C8.68443 11.221 8.31967 11.3603 7.89344 11.3603H1.54918C1.12295 11.3603 0.758197 11.221 0.454918 10.9423C0.151639 10.6636 0 10.3193 0 9.90948V6.56522C0 6.17178 0.151639 5.83161 0.454918 5.54473C0.758197 5.25784 1.12295 5.1144 1.54918 5.1144H7.89344C8.31967 5.1144 8.68443 5.25784 8.9877 5.54473C9.29098 5.83161 9.44262 6.17178 9.44262 6.56522ZM1.96721 10.2783V6.76194H2.7541V6.24555L0.663934 6.22096V6.73735H1.30328V10.2783H1.96721ZM4.32787 7.27834H3.66393V9.6144C3.63115 9.69637 3.57377 9.74965 3.4918 9.77424C3.40984 9.79883 3.34426 9.75375 3.29508 9.63899V9.17178L3.27049 7.27834H2.63115V9.73735C2.66393 10.016 2.72131 10.18 2.80328 10.2292C2.95082 10.3275 3.13525 10.3316 3.35656 10.2415C3.57787 10.1513 3.72951 10.0324 3.81148 9.88489V10.2783H4.32787V7.27834ZM6.41803 9.44227V7.8685C6.41803 7.55702 6.31967 7.34391 6.12295 7.22916C5.92623 7.1144 5.68033 7.17178 5.38525 7.40129V6.24555H4.72131V10.2537H5.26229L5.31148 9.98325C5.65574 10.2783 5.93033 10.3603 6.13525 10.2292C6.34016 10.098 6.43443 9.83571 6.41803 9.44227ZM8.48361 9.22096H7.9918V9.56522C7.9918 9.74555 7.90164 9.83571 7.72131 9.83571H7.62295C7.44262 9.83571 7.35246 9.74555 7.35246 9.56522V8.85211H8.48361V8.43407C8.48361 8.00784 8.47541 7.73735 8.45902 7.6226C8.40984 7.3603 8.23361 7.19637 7.93033 7.1308C7.62705 7.06522 7.37705 7.10621 7.18033 7.25375C7.04918 7.3685 6.95902 7.49145 6.90984 7.6226C6.86066 7.78653 6.83607 8.00784 6.83607 8.28653V9.22096C6.83607 9.82752 7.06557 10.18 7.52459 10.2783C7.91803 10.3603 8.20492 10.2292 8.38525 9.88489C8.5 9.70457 8.53279 9.48325 8.48361 9.22096ZM5.95082 4.15539C5.98361 4.23735 6.04098 4.30293 6.12295 4.35211C6.18852 4.40129 6.27869 4.42588 6.39344 4.42588C6.4918 4.42588 6.57377 4.40129 6.63934 4.35211C6.70492 4.30293 6.76229 4.22916 6.81147 4.1308V4.3767H7.54918V1.25375H6.95902V3.68817C6.95902 3.85211 6.87705 3.93407 6.71311 3.93407C6.56557 3.93407 6.4918 3.85211 6.4918 3.68817V1.25375H5.87705V3.3685C5.87705 3.66358 5.88525 3.84391 5.90164 3.90948C5.90164 3.97506 5.91803 4.05702 5.95082 4.15539ZM3.7377 2.40948C3.7377 2.1144 3.76229 1.8767 3.81148 1.69637C3.86066 1.54883 3.95082 1.41768 4.08197 1.30293C4.21311 1.20457 4.37705 1.15539 4.57377 1.15539C4.7541 1.15539 4.90164 1.18817 5.01639 1.25375C5.13115 1.30293 5.22131 1.38489 5.28688 1.49965C5.35246 1.58162 5.40164 1.68817 5.43443 1.81932C5.45082 1.90129 5.45902 2.07342 5.45902 2.33571V3.1226C5.45902 3.45047 5.45082 3.66358 5.43443 3.76194C5.41803 3.8767 5.36885 3.99965 5.28688 4.1308C5.2377 4.21276 5.14754 4.30293 5.01639 4.40129C4.88525 4.45047 4.7541 4.47506 4.62295 4.47506C4.45902 4.47506 4.31148 4.45047 4.18033 4.40129C4.06557 4.35211 3.97541 4.27834 3.90984 4.17998C3.84426 4.04883 3.80328 3.93407 3.78689 3.83571C3.7541 3.67178 3.7377 3.46686 3.7377 3.22096V2.40948ZM4.30328 3.63899C4.30328 3.72096 4.33197 3.79473 4.38934 3.8603C4.44672 3.92588 4.51639 3.95866 4.59836 3.95866C4.79508 3.95866 4.89344 3.85211 4.89344 3.63899V1.99145C4.89344 1.77834 4.79508 1.67178 4.59836 1.67178C4.40164 1.67178 4.30328 1.77834 4.30328 1.99145V3.63899ZM2.28689 4.47506H2.97541V2.08981L3.78689 0.0488281H3.04918L2.60656 1.57342L2.16393 0.0488281H1.42623L2.28689 2.08981V4.47506Z" fill="white"/>
</g>
<defs>
<clipPath id="clip0_3862_4721">
<rect width="9.44262" height="12" fill="white"/>
</clipPath>
</defs>
</svg>
